<svg xmlns="http://www.w3.org/2000/svg" viewBox="0 0 64 64" xmlns:v="https://vecta.io/nano"><path d="M0 0h64v64H0z" fill="#00309a"/><path d="M23.05,45.8V18.2h17.5v5.2H29v6.3h10.2v5.1H29v5.9H41v5.1Z" fill="#fff"/><g fill="#fc0"><path d="M32,2.2,30.67,6.31l2,.66Z"/><path d="M32,2.2l1.33,4.11-2,.66Z"/><path d="M36.1,5.18H31.79V7.34Z"/><path d="M36.1,5.18,32.61,7.72,31.34,6Z"/><path d="M34.54,10,33.2,5.9l-2.05.67Z"/><path d="M34.54,10,31.05,7.47l1.26-1.74Z"/><path d="M27.9,5.18h4.31V7.34Z"/><path d="M27.9,5.18l3.49,2.54L32.66,6Z"/><path d="M29.46,10,30.8,5.9l2.05.67Z"/><path d="M29.46 10L33 7.47l-1.31-1.74zM32 54l-1.33 4.1 2 .66z"/><path d="M32,54l1.33,4.11-2,.66Z"/><path d="M36.1,57H31.79v2.16Z"/><path d="M36.1,57l-3.49,2.54-1.27-1.75Z"/><path d="M34.54 61.8l-1.34-4.11-2.05.67z"/><path d="M34.54,61.8l-3.49-2.54,1.26-1.74Z"/><path d="M27.9,57h4.31v2.16Z"/><path d="M27.9,57l3.49,2.54,1.27-1.75Z"/><path d="M29.46,61.8l1.34-4.11,2.05.67Z"/><path d="M29.46 61.8L33 59.26l-1.26-1.74zM6.1 28.1l-1.33 4.1 2.05.67z"/><path d="M6.1,28.1l1.34,4.1-2.05.67Z"/><path d="M10.21,31.08H5.89v2.16Z"/><path d="M10.21 31.08l-3.49 2.54-1.27-1.75z"/><path d="M8.64 35.9l-1.33-4.1-2 .67z"/><path d="M8.64,35.9,5.15,33.37l1.27-1.75Z"/><path d="M2,31.08H6.32v2.16Z"/><path d="M2,31.08l3.49,2.54,1.27-1.75Z"/><path d="M3.57 35.9l1.33-4.1 2.1.67z"/><path d="M3.57 35.9l3.49-2.53-1.27-1.75zm12.95-22.42L20 10.94 18.74 9.2z"/><path d="M16.52,13.48l1.33-4.11,2,.67Z"/><path d="M15,8.65l3.49,2.54,1.27-1.75Z"/><path d="M15,8.65h4.31v2.16Z"/><path d="M19.05,5.67l-1.33,4.1,2.05.67Z"/><path d="M19.05,5.67l1.34,4.1-2.06.67Z"/><path d="M21.59,13.48,18.1,10.94,19.37,9.2Z"/><path d="M21.59,13.48,20.26,9.37,18.2,10Z"/><path d="M23.16,8.65l-3.49,2.54L18.4,9.44Z"/><path d="M23.16 8.65h-4.32v2.16zM12.11 23l-1.33-4.11-2.06.67z"/><path d="M12.11,23,8.62,20.42l1.27-1.75Z"/><path d="M7 23l3.49-2.54-1.23-1.79z"/><path d="M7,23l1.33-4.11,2.05.67Z"/><path d="M5.47,18.13,9,20.67l1.27-1.75Z"/><path d="M5.47,18.13H9.79v2.16Z"/><path d="M13.68 18.13l-3.49 2.54-1.27-1.75z"/><path d="M13.68,18.13H9.36v2.16Z"/><path d="M9.57,15.15l1.34,4.1-2.05.67Z"/><path d="M9.57 15.15l-1.33 4.1 2 .67zM13.68 44H9.36v2.15z"/><path d="M13.68 44l-3.49 2.53-1.27-1.71z"/><path d="M12.11,48.85l-1.33-4.1-2.06.66Z"/><path d="M12.11,48.85,8.62,46.31l1.27-1.74Z"/><path d="M7 48.85l3.49-2.54-1.23-1.74z"/><path d="M7,48.85l1.33-4.1,2.05.66Z"/><path d="M9.57,41l1.34,4.11-2.05.67Z"/><path d="M9.57,41,8.24,45.15l2,.67Z"/><path d="M5.47,44H9.79v2.15Z"/><path d="M5.47 44L9 46.56l1.27-1.74zm17.69 9.5h-4.32v2.16z"/><path d="M23.16,53.5,19.67,56,18.4,54.3Z"/><path d="M21.59,58.33l-1.33-4.1-2.06.66Z"/><path d="M21.59,58.33,18.1,55.79l1.27-1.74Z"/><path d="M16.52,58.33,20,55.79l-1.27-1.74Z"/><path d="M16.52,58.33l1.33-4.1,2,.66Z"/><path d="M19.05,50.52l1.34,4.11-2.06.66Z"/><path d="M19.05,50.52l-1.33,4.11,2.05.66Z"/><path d="M15,53.5h4.31v2.16Z"/><path d="M15 53.5l3.44 2.5 1.27-1.74zm42.9-25.4l1.33 4.1-2 .67z"/><path d="M57.9,28.1l-1.34,4.1,2,.67Z"/><path d="M53.79,31.08h4.32v2.16Z"/><path d="M53.79,31.08l3.49,2.54,1.27-1.75Z"/><path d="M55.36,35.9l1.33-4.1,2.05.67Z"/><path d="M55.36,35.9l3.49-2.53-1.27-1.75Z"/><path d="M62,31.08H57.68v2.16Z"/><path d="M62,31.08l-3.49,2.54-1.27-1.75Z"/><path d="M60.43 35.9l-1.33-4.1-2.05.67z"/><path d="M60.43 35.9l-3.49-2.53 1.27-1.75zM47.48 13.48L44 10.94l1.26-1.74z"/><path d="M47.48 13.48l-1.33-4.11-2 .67z"/><path d="M49.05 8.65l-3.49 2.54-1.27-1.75z"/><path d="M49.05,8.65H44.74v2.16Z"/><path d="M45,5.67l1.33,4.1-2.05.67Z"/><path d="M45,5.67l-1.34,4.1,2.06.67Z"/><path d="M42.41,13.48l3.49-2.54L44.63,9.2Z"/><path d="M42.41,13.48l1.33-4.11L45.8,10Z"/><path d="M40.84,8.65l3.49,2.54L45.6,9.44Z"/><path d="M40.84 8.65h4.32v2.16zM51.89 23l1.33-4.11 2.06.67z"/><path d="M51.89,23l3.49-2.54-1.27-1.75Z"/><path d="M57,23l-3.49-2.54,1.27-1.75Z"/><path d="M57,23l-1.33-4.11-2.05.67Z"/><path d="M58.53,18.13,55,20.67l-1.27-1.75Z"/><path d="M58.53,18.13H54.21v2.16Z"/><path d="M50.32,18.13l3.49,2.54,1.27-1.75Z"/><path d="M50.32,18.13h4.32v2.16Z"/><path d="M54.43,15.15l-1.34,4.1,2,.67Z"/><path d="M54.43 15.15l1.33 4.1-2 .67zM50.32 44h4.32v2.15z"/><path d="M50.32,44l3.49,2.53,1.27-1.74Z"/><path d="M51.89,48.85l1.33-4.1,2.06.66Z"/><path d="M51.89,48.85l3.49-2.54-1.27-1.74Z"/><path d="M57,48.85l-3.49-2.54,1.27-1.74Z"/><path d="M57,48.85l-1.33-4.1-2.05.66Z"/><path d="M54.43,41l-1.34,4.11,2,.67Z"/><path d="M54.43,41l1.33,4.11-2,.67Z"/><path d="M58.53,44H54.21v2.15Z"/><path d="M58.53 44L55 46.56l-1.27-1.74zm-17.69 9.5h4.32v2.16z"/><path d="M40.84 53.5l3.49 2.5 1.27-1.7z"/><path d="M42.41,58.33l1.33-4.1,2.06.66Z"/><path d="M42.41,58.33l3.49-2.54-1.27-1.74Z"/><path d="M47.48,58.33,44,55.79l1.27-1.74Z"/><path d="M47.48,58.33l-1.33-4.1-2,.66Z"/><path d="M45,50.52l-1.34,4.11,2.06.66Z"/><path d="M45,50.52l1.33,4.11-2.05.66Z"/><path d="M49.05,53.5H44.74v2.16Z"/><path d="M49.05 53.5L45.56 56l-1.27-1.7z"/></g></svg>