<svg xmlns="http://www.w3.org/2000/svg" viewBox="0 0 110 99.51" xmlns:v="https://vecta.io/nano"><path d="M11.29,54.87C1,44.52-2.17,31.77,2.76,19.88,7.56,8.29,19,.5,31.12.5,39.6.5,47.81,4.23,54.87,11.29l.35.36.36-.36C62.35,4.53,70.27,1,78.5,1c12.29,0,23.84,7.94,28.73,19.76s1.91,24.17-8.08,34.16L55.22,98.8Z" fill="#0f33ff"/><path d="M31.12,1c8.34,0,16.43,3.68,23.4,10.65l.7.71.71-.71C62.6,5,70.41,1.45,78.51,1.45c12.08,0,23.44,7.82,28.26,19.45s1.87,23.78-8,33.62L55.22,98.09,11.65,54.52C1.45,44.32-1.62,31.76,3.22,20.07,8,8.66,19.16,1,31.12,1m0-1C6.44,0-13.08,31.21,10.94,55.22L55.22,99.51,99.51,55.22C123,31.7,103,.45,78.5.45c-7.71,0-15.88,3.09-23.28,10.49C47.5,3.22,39.05,0,31.12,0Z" fill="#fff"/><path d="M55.5 11.25c0 22.67 20.57 41 46 41M54.65 10.79c0 22.66-20.57 41-46 41" fill="none" stroke="#fff" stroke-miterlimit="10"/></svg>