<?xml version="1.0" encoding="UTF-8" standalone="no"?>
<!-- Generator: Adobe Illustrator 18.0.0, SVG Export Plug-In . SVG Version: 6.00 Build 0)  -->

<svg
   version="1.1"
   id="Capa_1"
   x="0px"
   y="0px"
   viewBox="0 0 217.408 217.408"
   style="enable-background:new 0 0 217.408 217.408;"
   xml:space="preserve"
   sodipodi:docname="adultrue-logo.svg"
   inkscape:version="1.1 (c68e22c387, 2021-05-23)"
   xmlns:inkscape="http://www.inkscape.org/namespaces/inkscape"
   xmlns:sodipodi="http://sodipodi.sourceforge.net/DTD/sodipodi-0.dtd"
   xmlns:xlink="http://www.w3.org/1999/xlink"
   xmlns="http://www.w3.org/2000/svg"
   xmlns:svg="http://www.w3.org/2000/svg"><defs
   id="defs37"><linearGradient
     inkscape:collect="always"
     id="linearGradient1198"><stop
       style="stop-color:#00309a;stop-opacity:1;"
       offset="0"
       id="stop1194" /><stop
       style="stop-color:#00309a;stop-opacity:0;"
       offset="1"
       id="stop1196" /></linearGradient><linearGradient
     inkscape:collect="always"
     xlink:href="#linearGradient1198"
     id="linearGradient1200"
     x1="24.301617"
     y1="97.990387"
     x2="276.46353"
     y2="10.974923"
     gradientUnits="userSpaceOnUse" /></defs><sodipodi:namedview
   id="namedview35"
   pagecolor="#ffffff"
   bordercolor="#666666"
   borderopacity="1.0"
   inkscape:pageshadow="2"
   inkscape:pageopacity="0.0"
   inkscape:pagecheckerboard="0"
   showgrid="false"
   inkscape:showpageshadow="false"
   inkscape:zoom="3.826906"
   inkscape:cx="126.08096"
   inkscape:cy="108.83466"
   inkscape:window-width="1920"
   inkscape:window-height="1017"
   inkscape:window-x="-8"
   inkscape:window-y="-8"
   inkscape:window-maximized="1"
   inkscape:current-layer="Capa_1" />

<g
   id="g4">
</g>
<g
   id="g6">
</g>
<g
   id="g8">
</g>
<g
   id="g10">
</g>
<g
   id="g12">
</g>
<g
   id="g14">
</g>
<g
   id="g16">
</g>
<g
   id="g18">
</g>
<g
   id="g20">
</g>
<g
   id="g22">
</g>
<g
   id="g24">
</g>
<g
   id="g26">
</g>
<g
   id="g28">
</g>
<g
   id="g30">
</g>
<g
   id="g32">
</g>
<path
   style="fill:url(#linearGradient1200);stroke-width:0;stroke-linecap:round;stroke-miterlimit:0;fill-opacity:1"
   d="M 104.62389,185.08509 C 81.417887,166.85059 60.626859,147.11812 45.345407,128.8247 30.220226,110.71835 20.362186,93.556296 16.751825,79.045579 15.608437,74.450086 15.323172,72.106503 15.304619,67.156078 c -0.02589,-6.907912 0.803354,-10.777743 3.499638,-16.331731 2.050088,-4.222912 4.231022,-7.221911 7.979782,-10.972986 16.004331,-16.014215 35.081157,-18.615094 56.774627,-7.740489 7.434206,3.726654 13.420789,7.792584 22.081384,14.997103 l 3.07678,2.559491 3.32526,-2.783279 c 15.91852,-13.323981 30.12991,-20.235773 43.72945,-21.268061 12.59546,-0.956072 24.59077,3.942617 34.85243,14.233162 3.68152,3.691884 5.92007,6.745176 7.85488,10.713752 1.59192,3.265248 2.51365,5.945035 3.1743,9.228807 0.63286,3.145625 0.62175,11.190084 -0.0203,14.680847 -1.36115,7.400746 -3.54369,13.69921 -7.51549,21.688539 -10.80785,21.740107 -32.06486,46.711037 -62.28765,73.170187 -7.10867,6.22343 -22.57989,18.81012 -23.12089,18.81012 -0.10735,0 -1.94558,-1.3754 -4.08495,-3.05645 z"
   id="path891" /></svg>
